<svg width="38" height="33" viewBox="0 0 38 33" fill="none" xmlns="http://www.w3.org/2000/svg">
<path d="M28.4235 0.00444214C26.0825 -0.0675205 23.7216 0.735312 21.7912 2.38017C21.7091 2.38017 14.7274 9.45275 14.7274 9.45275C14.3167 9.86396 14.0696 10.44 14.0696 11.0157C14.0696 11.5914 14.3167 12.1674 14.7274 12.5786C15.5488 13.4011 16.9446 13.4011 17.766 12.5786L23.2704 6.98546C23.2704 6.98546 23.4341 6.73809 23.8448 6.73809C24.1733 6.73809 24.4191 6.98546 24.4191 6.98546L34.6868 17.2658L35.0157 16.9365C38.7942 12.9889 38.7945 6.73873 34.9339 2.87331C33.0857 1.02284 30.7646 0.0764047 28.4235 0.00444214Z" fill="#F55454"/>
<path d="M28.4235 0.00444214C26.0825 -0.0675205 23.7216 0.735312 21.7912 2.38017C21.7091 2.38017 14.7274 9.45275 14.7274 9.45275C14.3167 9.86396 14.0696 10.44 14.0696 11.0157C14.0696 11.5914 14.3167 12.1674 14.7274 12.5786C15.5488 13.4011 16.9446 13.4011 17.766 12.5786L23.2704 6.98546C23.2704 6.98546 23.4341 6.73809 23.8448 6.73809C24.1733 6.73809 24.4191 6.98546 24.4191 6.98546L34.6868 17.2658L35.0157 16.9365C38.7942 12.9889 38.7945 6.73873 34.9339 2.87331C33.0857 1.02284 30.7646 0.0764047 28.4235 0.00444214Z" fill="#F55454"/>
<path d="M2.89549 2.90385C4.82581 0.971136 7.35167 0.00445799 9.87752 0.00445799C12.4034 0.00445799 14.9292 0.971136 16.8595 2.90385L17.9264 3.97204L13.5739 8.33156C12.8346 9.07175 12.4236 10.0593 12.4236 11.0462C12.4236 12.1154 12.8346 13.0191 13.5739 13.7593C14.3132 14.4995 15.2158 14.911 16.2836 14.911C17.3514 14.911 18.2556 14.4995 18.9949 13.7593L23.9234 8.74278L34 18.5044L20.6539 31.6243C19.875 32.39 18.6258 32.3892 17.8479 31.6225L2.89549 16.8851C-0.965163 13.0197 -0.965163 6.76927 2.89549 2.90385Z" fill="#F55454"/>
</svg>
