<svg width="34" height="34" viewBox="0 0 34 34" fill="none" xmlns="http://www.w3.org/2000/svg">
<path d="M17 0C7.616 0 0 7.616 0 17C0 26.384 7.616 34 17 34C26.384 34 34 26.384 34 17C34 7.616 26.384 0 17 0ZM18.7 28.9H15.3V25.5H18.7V28.9ZM22.219 15.725L20.689 17.289C19.465 18.53 18.7 19.55 18.7 22.1H15.3V21.25C15.3 19.38 16.065 17.68 17.289 16.439L19.397 14.297C20.026 13.685 20.4 12.835 20.4 11.9C20.4 10.03 18.87 8.5 17 8.5C15.13 8.5 13.6 10.03 13.6 11.9H10.2C10.2 8.143 13.243 5.1 17 5.1C20.757 5.1 23.8 8.143 23.8 11.9C23.8 13.396 23.188 14.756 22.219 15.725Z" fill="#422AFB"/>
</svg>
