<svg width="20" height="20" viewBox="0 0 20 20" fill="none" xmlns="http://www.w3.org/2000/svg">
<path d="M19.7879 10.225C19.7879 9.56668 19.7296 8.94168 19.6296 8.33334H10.2129V12.0917H15.6046C15.3629 13.325 14.6546 14.3667 13.6046 15.075V17.575H16.8212C18.7046 15.8333 19.7879 13.2667 19.7879 10.225Z" fill="#4285F4"/>
<path d="M10.2131 20C12.9131 20 15.1714 19.1 16.8214 17.575L13.6048 15.075C12.7048 15.675 11.5631 16.0417 10.2131 16.0417C7.60475 16.0417 5.39642 14.2833 4.60475 11.9083H1.28809V14.4833C2.92975 17.75 6.30475 20 10.2131 20Z" fill="#34A853"/>
<path d="M4.60456 11.9083C4.39622 11.3083 4.28789 10.6667 4.28789 9.99999C4.28789 9.33333 4.40456 8.69166 4.60456 8.09166V5.51666H1.28789C0.604556 6.86666 0.212891 8.38333 0.212891 9.99999C0.212891 11.6167 0.604556 13.1333 1.28789 14.4833L4.60456 11.9083Z" fill="#FBBC05"/>
<path d="M10.2131 3.95833C11.6881 3.95833 13.0048 4.46667 14.0464 5.45834L16.8964 2.60833C15.1714 0.991667 12.9131 0 10.2131 0C6.30475 0 2.92975 2.25 1.28809 5.51667L4.60475 8.09167C5.39642 5.71667 7.60475 3.95833 10.2131 3.95833Z" fill="#EA4335"/>
</svg>
