<?xml version="1.0" standalone="no"?>
<!DOCTYPE svg PUBLIC "-//W3C//DTD SVG 20010904//EN"
 "http://www.w3.org/TR/2001/REC-SVG-20010904/DTD/svg10.dtd">
<svg version="1.0" xmlns="http://www.w3.org/2000/svg"
 width="35.000000pt" height="34.000000pt" viewBox="0 0 35.000000 34.000000"
 preserveAspectRatio="xMidYMid meet">

<g transform="translate(0.000000,34.000000) scale(0.100000,-0.100000)"
fill="#000000" stroke="none">
<path d="M100 311 c-70 -37 -100 -140 -64 -217 16 -34 16 -36 -6 -59 l-23 -25
109 0 c87 0 116 4 144 19 72 38 102 146 61 221 -38 72 -146 102 -221 61z m150
-161 c0 -19 -48 -60 -70 -60 -22 0 -70 41 -70 60 0 6 28 10 70 10 42 0 70 -4
70 -10z"/>
</g>
</svg>
