<svg width="445" height="105" viewBox="0 0 445 105" fill="none" xmlns="http://www.w3.org/2000/svg"><g clip-path="url(#a)"><path d="m72.644.11 1.26.133 1.247.186 1.233.238 1.213.286 1.195.334 1.181.381 1.157.429 1.134.477 1.115.514 1.091.563 1.068.605 1.044.643 1.016.687.988.724.96.762.931.796.898.834.87.868.838.905.805.934.766.968.734.996.701 1.025.659 1.058.62 1.081.584 1.106.54 1.134.5 1.158.456 1.178.414 1.2.366 1.225.32 1.24.278 1.262.23 1.277.179 1.297.127 1.31.08 1.325.024 1.335V72.75l-.024 1.334-.08 1.32-.127 1.311-.179 1.291-.23 1.278-.278 1.258-.32 1.244-.366 1.22-.414 1.2-.457 1.178-.498 1.158-.541 1.13-.584 1.105-.62 1.082-.659 1.053-.7 1.025-.735 1-.766.963-.805.935-.837.905-.87.867-.899.835-.931.795-.96.763-.988.724-1.016.682-1.044.648-1.068.6-1.091.563-1.115.519-1.134.472-1.157.429-1.18.386-1.196.334-1.213.286-1.233.233-1.246.186-1.26.138-1.28.081-1.29.024H31.39l-1.289-.024-1.275-.081-1.265-.138-1.247-.186-1.232-.233-1.214-.286-1.195-.339-1.176-.381-1.157-.429-1.138-.472-1.115-.519-1.091-.563-1.068-.6-1.04-.648-1.016-.682-.988-.724-.964-.763-.931-.8-.899-.834-.87-.868-.837-.905-.805-.934-.767-.968-.733-.996-.697-1.025-.663-1.053-.62-1.082-.58-1.11-.54-1.13-.499-1.157-.461-1.183-.41-1.2-.37-1.22-.32-1.244-.278-1.263-.226-1.278-.179-1.296-.132-1.306-.075-1.325L0 72.722V32.584l.028-1.335.075-1.325.132-1.31.179-1.297.226-1.277.277-1.263.32-1.239.372-1.224.409-1.201.461-1.178.499-1.158.54-1.134.58-1.106.62-1.081.663-1.058.697-1.025.733-.996.767-.968.805-.934.837-.905.87-.868.899-.834.931-.796.964-.762.988-.724 1.016-.687 1.04-.643 1.068-.605 1.09-.563 1.116-.514 1.138-.477 1.157-.429 1.176-.381 1.195-.334 1.214-.286L26.314.43l1.247-.186L28.826.11l1.275-.081L31.39 0h38.686l1.289.029 1.28.08ZM46.212 63.433l-.607.043-.597.066-.593.096-.583.119-.574.143-.564.171-.555.191-.546.214-.536.239-.523.262-.508.281-.498.3-.48.324-.47.343-.457.363-.437.381-.423.396-.41.419-.39.429-.372.448-.357.467-.334.481-.32.491-.297.51-.277.52-.254.533-.235.548-.212.558-.188.572-.165.577-.14.59-.119.6-.094.606-.065.62-.043.62-.014.633v.053h21.667l.611-.015.607-.043.602-.066.588-.096.584-.119.578-.143.565-.171.555-.191.54-.214.537-.239.522-.262.508-.281.499-.3.484-.324.466-.344.456-.362.438-.38.428-.397.404-.414.39-.434.372-.448.358-.467.334-.481.32-.491.296-.51.278-.52.254-.533.235-.548.212-.558.188-.572.164-.576.146-.591.118-.6.09-.606.065-.615.042-.624.014-.634v-.048H46.825l-.612.01ZM32.975 45.599l.014.644.043.633.066.63.093.619.118.61.141.605.17.591.188.582.216.567.235.557.254.548.278.53.301.519.32.505.339.491.357.472.372.457.395.444.409.424.428.405.442.39.457.367.47.348.484.33.504.31.513.29.522.262.536.243.55.22.555.2.57.17.578.149.588.119.593.095.602.072.611.038.617.014h21.789v-.052l-.014-.644-.038-.634-.07-.629-.09-.62-.122-.61-.141-.605-.165-.59-.193-.582-.212-.567-.235-.558-.258-.548-.278-.529-.301-.52-.315-.504-.339-.486-.357-.477-.377-.458-.39-.443-.41-.424-.428-.405-.442-.386-.456-.372-.475-.348-.485-.329-.498-.31-.513-.285-.527-.267-.536-.243-.546-.22-.56-.195-.569-.176-.578-.143-.584-.124-.597-.095-.602-.072-.607-.038-.616-.014H32.975v.052Zm13.237-17.681-.607.043-.597.067-.593.095-.583.12-.574.142-.564.172-.555.19-.546.215-.536.238-.523.262-.508.281-.498.3-.48.325-.47.343-.457.362-.437.381-.423.396-.41.42-.39.428-.372.453-.357.462-.334.481-.32.491-.297.51-.277.52-.254.534-.235.548-.212.557-.188.572-.165.577-.14.59-.119.601-.094.605-.065.62-.043.62-.014.633v.053h21.667l.611-.014.607-.043.602-.067.588-.095.584-.12.578-.142.565-.172.555-.19.54-.215.537-.238.522-.263.508-.28.499-.301.484-.324.466-.343.456-.362.438-.382.428-.395.404-.415.39-.434.372-.447.358-.468.334-.48.32-.492.296-.51.278-.52.254-.533.235-.548.212-.558.188-.572.164-.576.146-.591.118-.6.09-.606.065-.615.042-.624.014-.634v-.047H46.825l-.612.009Z" fill="#4C26DE"/><path d="M131.519 74.455c-3.038-2.387-4.652-5.37-4.84-8.955h11.323c.094 1.387.663 2.46 1.707 3.227 1.044.715 2.347 1.072 3.914 1.072 2.662 0 3.989-.762 3.989-2.292 0-.763-.306-1.335-.927-1.72-.569-.43-1.613-.859-3.133-1.288-.719-.185-6.472-1.677-7.187-1.863-5.984-1.573-8.976-5.323-8.976-11.242 0-3.198 1.332-5.8 3.989-7.807 2.658-2.001 6.29-3.007 10.895-3.007 4.083 0 7.474 1.025 10.179 3.079 2.757 2.006 4.276 4.846 4.558 8.52h-10.823c-.424-2.191-1.802-3.292-4.131-3.292-2.417 0-3.626.762-3.626 2.292 0 1.34 1.209 2.269 3.626 2.793.65.172 5.833 1.549 6.483 1.72 3.56.953 6.124 2.34 7.691 4.151 1.566 1.816 2.347 4.18 2.347 7.092 0 3.293-1.425 5.967-4.271 8.02-2.851 2.007-6.53 3.008-11.036 3.008-4.746 0-8.665-1.168-11.751-3.508Zm30.031-39.89c-1.327-1.339-1.995-2.935-1.995-4.799 0-1.863.668-3.436 1.995-4.727 1.331-1.335 2.898-2.002 4.699-2.002 1.901 0 3.491.667 4.775 2.002 1.326 1.291 1.99 2.864 1.99 4.727 0 1.864-.664 3.46-1.99 4.8-1.284 1.286-2.874 1.934-4.775 1.934-1.801 0-3.368-.648-4.699-1.934Zm-.64 6.801h10.753v35.81H160.91v-35.81Zm59.91 17.262c0-5.49-1.707-8.235-5.127-8.235-4.083 0-6.219 2.983-6.407 8.95v17.834h-10.753V58.628c0-5.49-1.708-8.235-5.128-8.235-1.989 0-3.556.786-4.699 2.364-1.138 1.525-1.707 3.865-1.707 7.015v17.405h-10.754v-35.81h10.754v3.655c2.276-2.96 5.315-4.442 9.116-4.442 4.982 0 8.637 2.102 10.965 6.3 1.044-2.049 2.611-3.603 4.699-4.651 2.089-1.1 4.178-1.649 6.266-1.649 4.318 0 7.639 1.434 9.968 4.299 2.371 2.864 3.561 6.824 3.561 11.886v20.412H220.82V58.628Zm59.422 0c0-5.49-1.708-8.235-5.128-8.235-4.083 0-6.218 2.983-6.407 8.95v17.834h-10.753V58.628c0-5.49-1.708-8.235-5.127-8.235-1.99 0-3.557.786-4.7 2.364-1.138 1.525-1.707 3.865-1.707 7.015v17.405h-10.754v-35.81h10.754v3.655c2.276-2.96 5.315-4.442 9.116-4.442 4.982 0 8.637 2.102 10.965 6.3 1.044-2.049 2.611-3.603 4.7-4.651 2.088-1.1 4.177-1.649 6.265-1.649 4.319 0 7.64 1.434 9.968 4.299 2.371 2.864 3.561 6.824 3.561 11.886v20.412h-10.753V58.628Zm59.421 0c0-5.49-1.708-8.235-5.128-8.235-4.078 0-6.218 2.983-6.406 8.95v17.834h-10.754V58.628c0-5.49-1.707-8.235-5.123-8.235-1.999 0-3.56.786-4.704 2.364-1.138 1.525-1.707 3.865-1.707 7.015v17.405h-10.754v-35.81h10.754v3.655c2.277-2.96 5.315-4.442 9.112-4.442 4.986 0 8.641 2.102 10.965 6.3 1.049-2.049 2.61-3.603 4.699-4.651 2.089-1.1 4.177-1.649 6.27-1.649 4.319 0 7.64 1.434 9.968 4.299 2.371 2.864 3.561 6.824 3.561 11.886v20.412h-10.753V58.628Zm14.85 33.513V41.366h10.749v3.584c.762-1.148 2.018-2.15 3.773-3.007 1.759-.91 3.73-1.363 5.913-1.363 4.605 0 8.495 1.84 11.675 5.514 3.232 3.675 4.845 8.069 4.845 13.178 0 5.108-1.613 9.503-4.845 13.177-3.18 3.674-7.07 5.514-11.675 5.514-2.183 0-4.154-.429-5.913-1.287-1.755-.91-3.011-1.935-3.773-3.083V92.14h-10.749Zm18.012-23.99c2.423 0 4.365-.835 5.838-2.508 1.519-1.668 2.276-3.793 2.276-6.371 0-2.579-.757-4.704-2.276-6.372-1.473-1.673-3.415-2.507-5.838-2.507s-4.389.834-5.908 2.507c-1.473 1.668-2.206 3.793-2.206 6.372 0 2.578.733 4.703 2.206 6.371 1.519 1.673 3.485 2.507 5.908 2.507Zm21.38-44.685h10.753v53.71h-10.753v-53.71Zm18.472 49.197c-3.518-3.531-5.268-8.02-5.268-13.463 0-5.347 1.778-9.789 5.339-13.32 3.608-3.532 8.114-5.3 13.529-5.3 2.611 0 5.052.453 7.333 1.363a17.947 17.947 0 0 1 6.12 3.937c1.807 1.72 3.204 3.94 4.206 6.662.997 2.721 1.448 5.8 1.35 9.236h-27.411c.189 1.959 1.045 3.603 2.564 4.942 1.515 1.287 3.655 1.935 6.407 1.935 1.562 0 2.987-.314 4.271-.934 1.28-.667 2.141-1.477 2.559-2.435h11.257c-1.138 3.774-3.42 6.83-6.84 9.17-3.415 2.34-7.357 3.507-11.816 3.507-5.509 0-10.043-1.768-13.6-5.3Zm8.185-21.913c-1.326 1.049-2.225 2.435-2.704 4.151h15.236c-.517-1.954-1.496-3.388-2.917-4.294-1.378-.958-2.869-1.434-4.487-1.434-2.042 0-3.749.529-5.128 1.577Z" fill="#1F2142"/></g><defs><clipPath id="a"><path fill="#fff" d="M0 0h445v105H0z"/></clipPath></defs></svg>