<svg width="178" height="42" fill="none" xmlns="http://www.w3.org/2000/svg"><g clip-path="url(#a)" fill="#fff"><path d="m29.058.044.504.053.498.075.494.095.485.114.478.134.472.152.463.172.454.19.446.206.436.225.427.242.418.258.406.274.395.29.384.305.373.318.36.334.347.347.335.362.322.374.307.387.293.398.28.41.264.423.248.433.234.442.216.454.2.463.182.471.166.48.146.49.128.496.111.505.093.511.071.518.05.525.033.53.01.534V29.1l-.01.534-.032.528-.05.524-.072.517-.093.51-.11.504-.129.497-.146.488-.166.48-.183.472-.199.463-.216.452-.234.442-.248.433-.263.42-.28.41-.294.401-.307.385-.322.374-.335.362-.348.347-.36.334-.372.318-.384.305-.395.29-.406.272-.418.26-.427.24-.436.225-.446.207-.454.19-.463.17-.472.155-.478.134-.486.114-.492.093-.5.075-.503.055-.512.032-.516.01H12.556l-.516-.01-.51-.032-.506-.055-.498-.075-.493-.093-.486-.114-.478-.136-.47-.152-.463-.172-.455-.189-.446-.207-.437-.225-.427-.24-.416-.26-.406-.272-.395-.29-.386-.305-.373-.32-.359-.334-.348-.347-.335-.362-.322-.374-.306-.387-.294-.398-.278-.41-.266-.421-.248-.433-.232-.444-.216-.452-.2-.463-.184-.473-.163-.48-.15-.488-.127-.498-.111-.505-.09-.511-.072-.518-.053-.523-.03-.53L0 29.09V13.034l.011-.534.03-.53.053-.525.072-.518.09-.51.11-.506.129-.496.149-.49.163-.48.185-.47.2-.464.215-.454.232-.442.248-.433.266-.423.278-.41.294-.398.306-.387.322-.374.335-.362.348-.347.36-.334.372-.318.386-.305.395-.29.406-.274.416-.258.427-.242.437-.225.446-.206.455-.19L8.6.667l.47-.152.478-.134.486-.114.493-.095.498-.075.507-.053.51-.033.515-.011H28.03l.516.011.512.033zm-10.573 25.33-.243.016-.239.027-.237.038-.233.048-.23.057-.226.069-.222.076-.218.086-.214.095-.21.105-.202.112-.2.12-.192.13-.188.137-.182.145-.175.153-.17.158-.163.168-.157.171-.148.18-.143.186-.134.193-.128.196-.118.204-.111.208-.102.213-.094.22-.085.223-.075.228-.066.231-.056.236-.047.24-.038.243-.026.247-.017.248-.006.254v.02h8.667l.244-.005.243-.017.24-.027.236-.038.233-.047.232-.058.226-.068.222-.077.216-.085.215-.096.208-.104.204-.113.2-.12.193-.13.186-.137.183-.145.175-.152.17-.159.163-.166.156-.173.149-.18.143-.186.133-.192.128-.197.119-.204.11-.208.102-.213.094-.22.085-.222.075-.23.066-.23.059-.236.046-.24.036-.242.027-.246.017-.25.005-.254v-.019H18.73l-.245.004zM13.19 18.24l.006.257.017.253.026.252.038.248.047.244.056.242.068.236.075.233.087.227.094.223.101.22.111.21.12.209.129.202.135.196.143.189.149.183.158.177.164.17.17.162.178.156.182.147.188.139.194.131.201.124.206.117.209.105.214.097.22.088.222.08.228.068.231.06.236.047.237.038.24.029.245.015.247.006h8.715v-.021l-.006-.258-.015-.253-.028-.252-.036-.248-.049-.244-.056-.242-.066-.236-.077-.233-.085-.227-.094-.223-.103-.219-.111-.212-.12-.207-.127-.202-.135-.195-.143-.19-.15-.183-.157-.178-.164-.17-.17-.161-.178-.155-.182-.148-.19-.14-.194-.131-.2-.124-.205-.114-.21-.107-.215-.098-.218-.087-.224-.078-.228-.07-.231-.058-.233-.05-.24-.038-.24-.028-.243-.016-.247-.005H13.19v.02zm5.295-7.073-.243.017-.239.027-.237.038-.233.048-.23.057-.226.069-.222.076-.218.086-.214.095-.21.105-.202.112-.2.12-.192.13-.188.137-.182.145-.175.153-.17.158-.163.168-.157.171-.148.181-.143.185-.134.193-.128.196-.118.204-.111.208-.102.213-.094.22-.085.223-.075.228-.066.231-.056.236-.047.24-.038.243-.026.248-.017.247-.006.254v.02h8.667l.244-.005.243-.017.24-.027.236-.038.233-.047.232-.058.226-.068.222-.076.216-.086.215-.096.208-.104.204-.113.2-.12.193-.13.186-.137.183-.145.175-.152.17-.159.163-.165.156-.174.149-.179.143-.187.133-.192.128-.197.119-.204.11-.208.102-.213.094-.22.085-.222.075-.229.066-.23.059-.237.046-.24.036-.242.027-.246.017-.25.005-.254v-.019H18.73l-.245.004zm34.123 18.615c-1.216-.955-1.861-2.148-1.936-3.582H55.2c.037.555.265.984.683 1.291.417.286.939.429 1.565.429 1.065 0 1.596-.305 1.596-.917 0-.305-.123-.534-.37-.688-.228-.172-.646-.343-1.254-.515-.288-.074-2.59-.67-2.875-.745-2.393-.63-3.59-2.13-3.59-4.497 0-1.28.532-2.32 1.595-3.123 1.063-.8 2.516-1.203 4.358-1.203 1.633 0 2.99.41 4.072 1.232 1.103.802 1.71 1.939 1.823 3.408h-4.33c-.169-.877-.72-1.317-1.651-1.317-.968 0-1.451.305-1.451.917 0 .536.483.907 1.45 1.117l2.593.688c1.425.381 2.45.936 3.077 1.66.627.727.939 1.672.939 2.837 0 1.317-.57 2.387-1.709 3.209-1.14.802-2.611 1.202-4.414 1.202-1.898 0-3.466-.467-4.7-1.403zM64.62 13.826a2.632 2.632 0 0 1-.798-1.92c0-.745.267-1.374.798-1.89.532-.534 1.16-.8 1.88-.8.76 0 1.396.266 1.91.8.53.516.796 1.146.796 1.89a2.63 2.63 0 0 1-.796 1.92c-.514.515-1.15.774-1.91.774-.72 0-1.347-.259-1.88-.774zm-.256 2.72h4.301v14.325h-4.3V16.547zm23.964 6.905c0-2.196-.683-3.294-2.05-3.294-1.634 0-2.488 1.194-2.563 3.58v7.134h-4.302v-7.42c0-2.196-.683-3.294-2.05-3.294-.797 0-1.423.315-1.88.946-.456.61-.684 1.546-.684 2.806v6.962h-4.3V16.547h4.3v1.462c.911-1.184 2.127-1.777 3.647-1.777 1.993 0 3.455.841 4.386 2.52a4.14 4.14 0 0 1 1.88-1.86c.835-.44 1.67-.66 2.506-.66 1.727 0 3.056.574 3.987 1.72.949 1.145 1.425 2.73 1.425 4.754v8.165h-4.302v-7.42zm23.769 0c0-2.196-.683-3.294-2.051-3.294-1.633 0-2.488 1.194-2.563 3.58v7.134h-4.301v-7.42c0-2.196-.683-3.294-2.051-3.294-.796 0-1.423.315-1.88.946-.455.61-.683 1.546-.683 2.806v6.962h-4.301V16.547h4.301v1.462c.91-1.184 2.126-1.777 3.647-1.777 1.992 0 3.454.841 4.386 2.52a4.137 4.137 0 0 1 1.879-1.86c.836-.44 1.671-.66 2.507-.66 1.727 0 3.055.574 3.987 1.72.948 1.145 1.424 2.73 1.424 4.754v8.165h-4.301v-7.42zm23.768 0c0-2.196-.683-3.294-2.051-3.294-1.631 0-2.487 1.194-2.562 3.58v7.134h-4.302v-7.42c0-2.196-.683-3.294-2.049-3.294-.8 0-1.424.315-1.882.946-.455.61-.683 1.546-.683 2.806v6.962h-4.301V16.547h4.301v1.462c.911-1.184 2.127-1.777 3.645-1.777 1.995 0 3.457.841 4.386 2.52a4.149 4.149 0 0 1 1.88-1.86c.835-.44 1.671-.66 2.508-.66 1.727 0 3.056.574 3.987 1.72.949 1.145 1.425 2.73 1.425 4.754v8.165h-4.302v-7.42zm5.94 13.406v-20.31h4.3v1.433c.305-.459.807-.86 1.509-1.203.704-.364 1.492-.545 2.365-.545 1.842 0 3.398.736 4.67 2.206 1.293 1.47 1.938 3.227 1.938 5.27 0 2.044-.645 3.802-1.938 5.272-1.272 1.47-2.828 2.205-4.67 2.205-.873 0-1.661-.171-2.365-.514-.702-.364-1.204-.774-1.509-1.234v7.42h-4.3zm7.205-9.597c.969 0 1.746-.333 2.335-1.002.608-.668.911-1.518.911-2.55 0-1.03-.303-1.88-.911-2.548-.589-.669-1.366-1.003-2.335-1.003-.969 0-1.755.334-2.363 1.003-.589.667-.883 1.518-.883 2.549s.294 1.881.883 2.549c.608.669 1.394 1.002 2.363 1.002zm8.552-17.873h4.301V30.87h-4.301V9.387zm7.389 19.679c-1.407-1.413-2.107-3.209-2.107-5.386 0-2.139.711-3.915 2.135-5.328 1.444-1.413 3.246-2.12 5.412-2.12 1.044 0 2.021.181 2.933.546.93.362 1.746.886 2.448 1.574.723.688 1.282 1.577 1.682 2.665.399 1.089.58 2.32.54 3.695H167.03c.076.783.418 1.44 1.026 1.976.606.515 1.462.774 2.563.774.624 0 1.194-.125 1.708-.373.512-.267.856-.591 1.024-.974h4.502c-.455 1.51-1.368 2.731-2.736 3.667-1.366.936-2.942 1.403-4.726 1.403-2.204 0-4.017-.707-5.44-2.12zm3.274-8.766c-.531.42-.89.974-1.082 1.66h6.095c-.207-.78-.599-1.355-1.167-1.717a3.076 3.076 0 0 0-1.795-.574c-.817 0-1.5.212-2.051.631z"/></g><defs><clipPath id="a"><path fill="#fff" d="M0 0h178v42H0z"/></clipPath></defs></svg>